# xmcd CD database file
#
# Track frame offsets:
#	185
#	10220
#	24182
#	41545
#	54445
#	65695
#	80115
#	95580
#	107902
#	120480
#	140212
#	153680
#	165315
#	182200
#	199760
#	213337
#	229085
#	246412
#	259110
#
# Disc length: 3746 seconds
#
# Revision: 0
# Processed by: cddbd v1.5.2PL0 Copyright (c) Steve Scherf et al.
# Submitted via: CDex 1.51
#
DISCID=0e0ea013
DTITLE=Silver - Up Hill All The Way
DYEAR=1900
DGENRE=Country
TTITLE0=How Do
TTITLE1=Country Club
TTITLE2=Walkin' On The Moon
TTITLE3=Here We Are
TTITLE4=Crazy Over You
TTITLE5=Stories, Trophies and Memories
TTITLE6=Walking Shoes
TTITLE7=I Wanna Be The One
TTITLE8=Where There's Smoke
TTITLE9=Hard Times For An Honest Man
TTITLE10=Baby's Got A Hold On Me
TTITLE11=When It's Gone
TTITLE12=If Tomorrow Never Comes
TTITLE13=Same Old Star
TTITLE14=Church On Cumberland Road
TTITLE15=Like Father, Like Son
TTITLE16=Workin' Man
TTITLE17=Gone, Gone, Gone
TTITLE18=Coast Of Colorado
EXTD=
EXTT0=
EXTT1=
EXTT2=
EXTT3=
EXTT4=
EXTT5=
EXTT6=
EXTT7=
EXTT8=
EXTT9=
EXTT10=
EXTT11=
EXTT12=
EXTT13=
EXTT14=
EXTT15=
EXTT16=
EXTT17=
EXTT18=
PLAYORDER=
